<mxfile host="app.diagrams.net" modified="2024-07-23T09:05:34.696Z" agent="Mozilla/5.0 (Macintosh; Intel Mac OS X 10_15_7) AppleWebKit/537.36 (KHTML, like Gecko) Chrome/126.0.0.0 Safari/537.36" etag="wE56FVYs1MESIXLVtdtR" version="24.7.1" type="github">
  <diagram id="C5RBs43oDa-KdzZeNtuy" name="Page-1">
    <mxGraphModel dx="1743" dy="1545" grid="1" gridSize="10" guides="1" tooltips="1" connect="1" arrows="1" fold="1" page="1" pageScale="1" pageWidth="827" pageHeight="1169" math="0" shadow="0">
      <root>
        <mxCell id="WIyWlLk6GJQsqaUBKTNV-0" />
        <mxCell id="WIyWlLk6GJQsqaUBKTNV-1" parent="WIyWlLk6GJQsqaUBKTNV-0" />
        <mxCell id="wTGpZdSpnWdDO8Zr_Y5N-1" value="" style="edgeStyle=orthogonalEdgeStyle;rounded=0;orthogonalLoop=1;jettySize=auto;html=1;strokeWidth=2;" edge="1" parent="WIyWlLk6GJQsqaUBKTNV-1" source="WIyWlLk6GJQsqaUBKTNV-3" target="wTGpZdSpnWdDO8Zr_Y5N-0">
          <mxGeometry relative="1" as="geometry" />
        </mxCell>
        <mxCell id="wTGpZdSpnWdDO8Zr_Y5N-74" value="Trigger" style="edgeLabel;html=1;align=center;verticalAlign=middle;resizable=0;points=[];" vertex="1" connectable="0" parent="wTGpZdSpnWdDO8Zr_Y5N-1">
          <mxGeometry x="-0.2308" relative="1" as="geometry">
            <mxPoint as="offset" />
          </mxGeometry>
        </mxCell>
        <mxCell id="WIyWlLk6GJQsqaUBKTNV-3" value="Event Bus" style="rounded=1;whiteSpace=wrap;html=1;fontSize=12;glass=0;strokeWidth=1;shadow=0;fillColor=#ffe6cc;strokeColor=#d79b00;" parent="WIyWlLk6GJQsqaUBKTNV-1" vertex="1">
          <mxGeometry x="160" y="80" width="120" height="40" as="geometry" />
        </mxCell>
        <mxCell id="wTGpZdSpnWdDO8Zr_Y5N-3" value="" style="edgeStyle=orthogonalEdgeStyle;rounded=0;orthogonalLoop=1;jettySize=auto;html=1;" edge="1" parent="WIyWlLk6GJQsqaUBKTNV-1" source="wTGpZdSpnWdDO8Zr_Y5N-0" target="wTGpZdSpnWdDO8Zr_Y5N-2">
          <mxGeometry relative="1" as="geometry" />
        </mxCell>
        <mxCell id="wTGpZdSpnWdDO8Zr_Y5N-7" value="" style="edgeStyle=orthogonalEdgeStyle;rounded=0;orthogonalLoop=1;jettySize=auto;html=1;" edge="1" parent="WIyWlLk6GJQsqaUBKTNV-1" source="wTGpZdSpnWdDO8Zr_Y5N-0" target="wTGpZdSpnWdDO8Zr_Y5N-6">
          <mxGeometry relative="1" as="geometry" />
        </mxCell>
        <mxCell id="wTGpZdSpnWdDO8Zr_Y5N-0" value="Get PHD Events" style="whiteSpace=wrap;html=1;rounded=1;glass=0;strokeWidth=1;shadow=0;fillColor=#ffe6cc;strokeColor=#d79b00;" vertex="1" parent="WIyWlLk6GJQsqaUBKTNV-1">
          <mxGeometry x="460" y="190" width="120" height="60" as="geometry" />
        </mxCell>
        <mxCell id="wTGpZdSpnWdDO8Zr_Y5N-5" value="" style="edgeStyle=orthogonalEdgeStyle;rounded=0;orthogonalLoop=1;jettySize=auto;html=1;" edge="1" parent="WIyWlLk6GJQsqaUBKTNV-1" source="wTGpZdSpnWdDO8Zr_Y5N-2" target="wTGpZdSpnWdDO8Zr_Y5N-4">
          <mxGeometry relative="1" as="geometry" />
        </mxCell>
        <mxCell id="wTGpZdSpnWdDO8Zr_Y5N-2" value="Extract Affected Resources" style="whiteSpace=wrap;html=1;rounded=1;glass=0;strokeWidth=1;shadow=0;fillColor=#dae8fc;strokeColor=#6c8ebf;" vertex="1" parent="WIyWlLk6GJQsqaUBKTNV-1">
          <mxGeometry x="200" y="280" width="120" height="60" as="geometry" />
        </mxCell>
        <mxCell id="wTGpZdSpnWdDO8Zr_Y5N-12" value="" style="edgeStyle=orthogonalEdgeStyle;rounded=0;orthogonalLoop=1;jettySize=auto;html=1;" edge="1" parent="WIyWlLk6GJQsqaUBKTNV-1" source="wTGpZdSpnWdDO8Zr_Y5N-4" target="wTGpZdSpnWdDO8Zr_Y5N-11">
          <mxGeometry relative="1" as="geometry" />
        </mxCell>
        <mxCell id="wTGpZdSpnWdDO8Zr_Y5N-40" value="" style="edgeStyle=orthogonalEdgeStyle;rounded=0;orthogonalLoop=1;jettySize=auto;html=1;entryX=0;entryY=0.5;entryDx=0;entryDy=0;" edge="1" parent="WIyWlLk6GJQsqaUBKTNV-1" source="wTGpZdSpnWdDO8Zr_Y5N-4" target="wTGpZdSpnWdDO8Zr_Y5N-39">
          <mxGeometry relative="1" as="geometry">
            <Array as="points">
              <mxPoint x="450" y="440" />
              <mxPoint x="450" y="460" />
            </Array>
          </mxGeometry>
        </mxCell>
        <mxCell id="wTGpZdSpnWdDO8Zr_Y5N-4" value="Retrieve Tags Resources" style="whiteSpace=wrap;html=1;rounded=1;glass=0;strokeWidth=1;shadow=0;fillColor=#dae8fc;strokeColor=#6c8ebf;" vertex="1" parent="WIyWlLk6GJQsqaUBKTNV-1">
          <mxGeometry x="200" y="390" width="120" height="60" as="geometry" />
        </mxCell>
        <mxCell id="wTGpZdSpnWdDO8Zr_Y5N-50" value="" style="edgeStyle=orthogonalEdgeStyle;rounded=0;orthogonalLoop=1;jettySize=auto;html=1;" edge="1" parent="WIyWlLk6GJQsqaUBKTNV-1" source="wTGpZdSpnWdDO8Zr_Y5N-6" target="wTGpZdSpnWdDO8Zr_Y5N-49">
          <mxGeometry relative="1" as="geometry" />
        </mxCell>
        <mxCell id="wTGpZdSpnWdDO8Zr_Y5N-6" value="Get Descriptive Details" style="rounded=1;whiteSpace=wrap;html=1;glass=0;strokeWidth=1;shadow=0;fillColor=#dae8fc;strokeColor=#6c8ebf;" vertex="1" parent="WIyWlLk6GJQsqaUBKTNV-1">
          <mxGeometry x="755" y="320" width="120" height="60" as="geometry" />
        </mxCell>
        <mxCell id="wTGpZdSpnWdDO8Zr_Y5N-8" value="BOTO &lt;br&gt;AWS API" style="ellipse;whiteSpace=wrap;html=1;rounded=1;glass=0;strokeWidth=1;shadow=0;fillColor=#e1d5e7;strokeColor=#9673a6;" vertex="1" parent="WIyWlLk6GJQsqaUBKTNV-1">
          <mxGeometry x="450" y="310" width="80" height="80" as="geometry" />
        </mxCell>
        <mxCell id="wTGpZdSpnWdDO8Zr_Y5N-10" value="" style="endArrow=classic;startArrow=classic;html=1;rounded=0;entryX=0.015;entryY=0.667;entryDx=0;entryDy=0;exitX=1;exitY=0.25;exitDx=0;exitDy=0;entryPerimeter=0;" edge="1" parent="WIyWlLk6GJQsqaUBKTNV-1" source="wTGpZdSpnWdDO8Zr_Y5N-4" target="wTGpZdSpnWdDO8Zr_Y5N-8">
          <mxGeometry width="50" height="50" relative="1" as="geometry">
            <mxPoint x="322" y="420" as="sourcePoint" />
            <mxPoint x="390" y="420" as="targetPoint" />
          </mxGeometry>
        </mxCell>
        <mxCell id="wTGpZdSpnWdDO8Zr_Y5N-14" value="" style="edgeStyle=orthogonalEdgeStyle;rounded=0;orthogonalLoop=1;jettySize=auto;html=1;" edge="1" parent="WIyWlLk6GJQsqaUBKTNV-1" source="wTGpZdSpnWdDO8Zr_Y5N-11" target="wTGpZdSpnWdDO8Zr_Y5N-13">
          <mxGeometry relative="1" as="geometry" />
        </mxCell>
        <mxCell id="wTGpZdSpnWdDO8Zr_Y5N-20" value="" style="edgeStyle=orthogonalEdgeStyle;rounded=0;orthogonalLoop=1;jettySize=auto;html=1;" edge="1" parent="WIyWlLk6GJQsqaUBKTNV-1" source="wTGpZdSpnWdDO8Zr_Y5N-11" target="wTGpZdSpnWdDO8Zr_Y5N-19">
          <mxGeometry relative="1" as="geometry" />
        </mxCell>
        <mxCell id="wTGpZdSpnWdDO8Zr_Y5N-11" value="Extract POD from Tags" style="whiteSpace=wrap;html=1;rounded=1;glass=0;strokeWidth=1;shadow=0;fillColor=#dae8fc;strokeColor=#6c8ebf;" vertex="1" parent="WIyWlLk6GJQsqaUBKTNV-1">
          <mxGeometry x="200" y="500" width="120" height="60" as="geometry" />
        </mxCell>
        <mxCell id="wTGpZdSpnWdDO8Zr_Y5N-16" value="" style="edgeStyle=orthogonalEdgeStyle;rounded=0;orthogonalLoop=1;jettySize=auto;html=1;" edge="1" parent="WIyWlLk6GJQsqaUBKTNV-1" source="wTGpZdSpnWdDO8Zr_Y5N-13" target="wTGpZdSpnWdDO8Zr_Y5N-15">
          <mxGeometry relative="1" as="geometry" />
        </mxCell>
        <mxCell id="wTGpZdSpnWdDO8Zr_Y5N-13" value="If not found" style="rhombus;whiteSpace=wrap;html=1;rounded=1;glass=0;strokeWidth=1;shadow=0;fillColor=#d5e8d4;strokeColor=#82b366;" vertex="1" parent="WIyWlLk6GJQsqaUBKTNV-1">
          <mxGeometry x="400" y="490" width="80" height="80" as="geometry" />
        </mxCell>
        <mxCell id="wTGpZdSpnWdDO8Zr_Y5N-18" value="" style="edgeStyle=orthogonalEdgeStyle;rounded=0;orthogonalLoop=1;jettySize=auto;html=1;entryX=0.75;entryY=1;entryDx=0;entryDy=0;exitX=0;exitY=0.75;exitDx=0;exitDy=0;" edge="1" parent="WIyWlLk6GJQsqaUBKTNV-1" source="wTGpZdSpnWdDO8Zr_Y5N-15" target="wTGpZdSpnWdDO8Zr_Y5N-11">
          <mxGeometry relative="1" as="geometry">
            <mxPoint x="320" y="800" as="targetPoint" />
            <Array as="points">
              <mxPoint x="400" y="630" />
              <mxPoint x="290" y="630" />
            </Array>
          </mxGeometry>
        </mxCell>
        <mxCell id="wTGpZdSpnWdDO8Zr_Y5N-85" value="" style="edgeStyle=orthogonalEdgeStyle;rounded=0;orthogonalLoop=1;jettySize=auto;html=1;" edge="1" parent="WIyWlLk6GJQsqaUBKTNV-1" source="wTGpZdSpnWdDO8Zr_Y5N-15" target="wTGpZdSpnWdDO8Zr_Y5N-13">
          <mxGeometry relative="1" as="geometry" />
        </mxCell>
        <mxCell id="wTGpZdSpnWdDO8Zr_Y5N-15" value="Default to devops" style="rounded=1;whiteSpace=wrap;html=1;glass=0;strokeWidth=1;shadow=0;fillColor=#dae8fc;strokeColor=#6c8ebf;" vertex="1" parent="WIyWlLk6GJQsqaUBKTNV-1">
          <mxGeometry x="380" y="610" width="120" height="60" as="geometry" />
        </mxCell>
        <mxCell id="wTGpZdSpnWdDO8Zr_Y5N-25" value="" style="edgeStyle=orthogonalEdgeStyle;rounded=0;orthogonalLoop=1;jettySize=auto;html=1;" edge="1" parent="WIyWlLk6GJQsqaUBKTNV-1" source="wTGpZdSpnWdDO8Zr_Y5N-19" target="wTGpZdSpnWdDO8Zr_Y5N-24">
          <mxGeometry relative="1" as="geometry" />
        </mxCell>
        <mxCell id="wTGpZdSpnWdDO8Zr_Y5N-19" value="Find OG team name from POD" style="rounded=1;whiteSpace=wrap;html=1;glass=0;strokeWidth=1;shadow=0;fillColor=#dae8fc;strokeColor=#6c8ebf;" vertex="1" parent="WIyWlLk6GJQsqaUBKTNV-1">
          <mxGeometry x="200" y="720" width="120" height="60" as="geometry" />
        </mxCell>
        <mxCell id="wTGpZdSpnWdDO8Zr_Y5N-21" value="pod - team mapping" style="shape=cylinder3;whiteSpace=wrap;html=1;boundedLbl=1;backgroundOutline=1;size=15;fillColor=#f5f5f5;fontColor=#333333;strokeColor=#666666;" vertex="1" parent="WIyWlLk6GJQsqaUBKTNV-1">
          <mxGeometry x="405" y="710" width="70" height="80" as="geometry" />
        </mxCell>
        <mxCell id="wTGpZdSpnWdDO8Zr_Y5N-23" value="" style="endArrow=classic;startArrow=classic;html=1;rounded=0;exitX=1;exitY=0.5;exitDx=0;exitDy=0;entryX=0;entryY=0.5;entryDx=0;entryDy=0;entryPerimeter=0;" edge="1" parent="WIyWlLk6GJQsqaUBKTNV-1" source="wTGpZdSpnWdDO8Zr_Y5N-19" target="wTGpZdSpnWdDO8Zr_Y5N-21">
          <mxGeometry width="50" height="50" relative="1" as="geometry">
            <mxPoint x="390" y="700" as="sourcePoint" />
            <mxPoint x="440" y="650" as="targetPoint" />
          </mxGeometry>
        </mxCell>
        <mxCell id="wTGpZdSpnWdDO8Zr_Y5N-30" value="" style="edgeStyle=orthogonalEdgeStyle;rounded=0;orthogonalLoop=1;jettySize=auto;html=1;" edge="1" parent="WIyWlLk6GJQsqaUBKTNV-1" source="wTGpZdSpnWdDO8Zr_Y5N-24" target="wTGpZdSpnWdDO8Zr_Y5N-29">
          <mxGeometry relative="1" as="geometry" />
        </mxCell>
        <mxCell id="wTGpZdSpnWdDO8Zr_Y5N-24" value="Get All Team&#39;s Schedules" style="whiteSpace=wrap;html=1;rounded=1;glass=0;strokeWidth=1;shadow=0;fillColor=#dae8fc;strokeColor=#6c8ebf;" vertex="1" parent="WIyWlLk6GJQsqaUBKTNV-1">
          <mxGeometry x="200" y="860" width="120" height="60" as="geometry" />
        </mxCell>
        <mxCell id="wTGpZdSpnWdDO8Zr_Y5N-26" value="Opsgenie&lt;br&gt;API" style="ellipse;whiteSpace=wrap;html=1;rounded=1;glass=0;strokeWidth=1;shadow=0;fillColor=#e1d5e7;strokeColor=#9673a6;" vertex="1" parent="WIyWlLk6GJQsqaUBKTNV-1">
          <mxGeometry x="440" y="900" width="80" height="80" as="geometry" />
        </mxCell>
        <mxCell id="wTGpZdSpnWdDO8Zr_Y5N-28" value="" style="endArrow=classic;startArrow=classic;html=1;rounded=0;exitX=1;exitY=0.5;exitDx=0;exitDy=0;entryX=0.015;entryY=0.271;entryDx=0;entryDy=0;entryPerimeter=0;" edge="1" parent="WIyWlLk6GJQsqaUBKTNV-1" source="wTGpZdSpnWdDO8Zr_Y5N-24" target="wTGpZdSpnWdDO8Zr_Y5N-26">
          <mxGeometry width="50" height="50" relative="1" as="geometry">
            <mxPoint x="390" y="850" as="sourcePoint" />
            <mxPoint x="410" y="890" as="targetPoint" />
          </mxGeometry>
        </mxCell>
        <mxCell id="wTGpZdSpnWdDO8Zr_Y5N-33" value="" style="edgeStyle=orthogonalEdgeStyle;rounded=0;orthogonalLoop=1;jettySize=auto;html=1;" edge="1" parent="WIyWlLk6GJQsqaUBKTNV-1" source="wTGpZdSpnWdDO8Zr_Y5N-29" target="wTGpZdSpnWdDO8Zr_Y5N-32">
          <mxGeometry relative="1" as="geometry" />
        </mxCell>
        <mxCell id="wTGpZdSpnWdDO8Zr_Y5N-29" value="Get OnCall&#39;s mail ID of primary schedule" style="whiteSpace=wrap;html=1;rounded=1;glass=0;strokeWidth=1;shadow=0;fillColor=#dae8fc;strokeColor=#6c8ebf;" vertex="1" parent="WIyWlLk6GJQsqaUBKTNV-1">
          <mxGeometry x="200" y="1000" width="120" height="60" as="geometry" />
        </mxCell>
        <mxCell id="wTGpZdSpnWdDO8Zr_Y5N-42" value="" style="edgeStyle=orthogonalEdgeStyle;rounded=0;orthogonalLoop=1;jettySize=auto;html=1;" edge="1" parent="WIyWlLk6GJQsqaUBKTNV-1" source="wTGpZdSpnWdDO8Zr_Y5N-32" target="wTGpZdSpnWdDO8Zr_Y5N-41">
          <mxGeometry relative="1" as="geometry">
            <Array as="points">
              <mxPoint x="350" y="1280" />
            </Array>
          </mxGeometry>
        </mxCell>
        <mxCell id="wTGpZdSpnWdDO8Zr_Y5N-32" value="Get JIRA account ID from mail ID" style="whiteSpace=wrap;html=1;rounded=1;glass=0;strokeWidth=1;shadow=0;fillColor=#dae8fc;strokeColor=#6c8ebf;" vertex="1" parent="WIyWlLk6GJQsqaUBKTNV-1">
          <mxGeometry x="200" y="1250" width="120" height="60" as="geometry" />
        </mxCell>
        <mxCell id="wTGpZdSpnWdDO8Zr_Y5N-34" value="JIRA API" style="ellipse;whiteSpace=wrap;html=1;rounded=1;glass=0;strokeWidth=1;shadow=0;fillColor=#e1d5e7;strokeColor=#9673a6;" vertex="1" parent="WIyWlLk6GJQsqaUBKTNV-1">
          <mxGeometry x="490" y="1110" width="80" height="80" as="geometry" />
        </mxCell>
        <mxCell id="wTGpZdSpnWdDO8Zr_Y5N-56" value="" style="edgeStyle=orthogonalEdgeStyle;rounded=0;orthogonalLoop=1;jettySize=auto;html=1;entryX=0;entryY=0.5;entryDx=0;entryDy=0;" edge="1" parent="WIyWlLk6GJQsqaUBKTNV-1" source="wTGpZdSpnWdDO8Zr_Y5N-39" target="wTGpZdSpnWdDO8Zr_Y5N-43">
          <mxGeometry relative="1" as="geometry">
            <mxPoint x="660" y="800" as="targetPoint" />
            <Array as="points">
              <mxPoint x="610" y="980" />
            </Array>
          </mxGeometry>
        </mxCell>
        <mxCell id="wTGpZdSpnWdDO8Zr_Y5N-39" value="Pass tags as labels" style="rounded=1;whiteSpace=wrap;html=1;fillColor=#dae8fc;strokeColor=#6c8ebf;" vertex="1" parent="WIyWlLk6GJQsqaUBKTNV-1">
          <mxGeometry x="550" y="430" width="120" height="60" as="geometry" />
        </mxCell>
        <mxCell id="wTGpZdSpnWdDO8Zr_Y5N-62" value="" style="edgeStyle=orthogonalEdgeStyle;rounded=0;orthogonalLoop=1;jettySize=auto;html=1;entryX=0.5;entryY=1;entryDx=0;entryDy=0;" edge="1" parent="WIyWlLk6GJQsqaUBKTNV-1" source="wTGpZdSpnWdDO8Zr_Y5N-41" target="wTGpZdSpnWdDO8Zr_Y5N-43">
          <mxGeometry relative="1" as="geometry">
            <mxPoint x="830" y="1280" as="targetPoint" />
            <Array as="points">
              <mxPoint x="815" y="1280" />
            </Array>
          </mxGeometry>
        </mxCell>
        <mxCell id="wTGpZdSpnWdDO8Zr_Y5N-41" value="Assign as ticket assignee" style="whiteSpace=wrap;html=1;rounded=1;glass=0;strokeWidth=1;shadow=0;fillColor=#dae8fc;strokeColor=#6c8ebf;" vertex="1" parent="WIyWlLk6GJQsqaUBKTNV-1">
          <mxGeometry x="610" y="1250" width="120" height="60" as="geometry" />
        </mxCell>
        <mxCell id="wTGpZdSpnWdDO8Zr_Y5N-65" value="" style="edgeStyle=orthogonalEdgeStyle;rounded=0;orthogonalLoop=1;jettySize=auto;html=1;" edge="1" parent="WIyWlLk6GJQsqaUBKTNV-1" source="wTGpZdSpnWdDO8Zr_Y5N-43" target="wTGpZdSpnWdDO8Zr_Y5N-64">
          <mxGeometry relative="1" as="geometry" />
        </mxCell>
        <mxCell id="wTGpZdSpnWdDO8Zr_Y5N-43" value="Ticket Construction and Creation" style="whiteSpace=wrap;html=1;rounded=1;glass=0;strokeWidth=1;shadow=0;fillColor=#dae8fc;strokeColor=#6c8ebf;" vertex="1" parent="WIyWlLk6GJQsqaUBKTNV-1">
          <mxGeometry x="690" y="950" width="250" height="60" as="geometry" />
        </mxCell>
        <mxCell id="wTGpZdSpnWdDO8Zr_Y5N-48" value="" style="endArrow=classic;startArrow=classic;html=1;rounded=0;exitX=1;exitY=0;exitDx=0;exitDy=0;entryX=-0.027;entryY=0.75;entryDx=0;entryDy=0;entryPerimeter=0;" edge="1" parent="WIyWlLk6GJQsqaUBKTNV-1" source="wTGpZdSpnWdDO8Zr_Y5N-32" target="wTGpZdSpnWdDO8Zr_Y5N-34">
          <mxGeometry width="50" height="50" relative="1" as="geometry">
            <mxPoint x="480" y="1080" as="sourcePoint" />
            <mxPoint x="530" y="1030" as="targetPoint" />
          </mxGeometry>
        </mxCell>
        <mxCell id="wTGpZdSpnWdDO8Zr_Y5N-54" value="" style="edgeStyle=orthogonalEdgeStyle;rounded=0;orthogonalLoop=1;jettySize=auto;html=1;entryX=0.5;entryY=0;entryDx=0;entryDy=0;" edge="1" parent="WIyWlLk6GJQsqaUBKTNV-1" source="wTGpZdSpnWdDO8Zr_Y5N-49" target="wTGpZdSpnWdDO8Zr_Y5N-43">
          <mxGeometry relative="1" as="geometry">
            <mxPoint x="910" y="820" as="targetPoint" />
          </mxGeometry>
        </mxCell>
        <mxCell id="wTGpZdSpnWdDO8Zr_Y5N-49" value="Descripition Formatting" style="whiteSpace=wrap;html=1;rounded=1;glass=0;strokeWidth=1;shadow=0;fillColor=#dae8fc;strokeColor=#6c8ebf;" vertex="1" parent="WIyWlLk6GJQsqaUBKTNV-1">
          <mxGeometry x="755" y="585" width="120" height="60" as="geometry" />
        </mxCell>
        <mxCell id="wTGpZdSpnWdDO8Zr_Y5N-63" value="" style="endArrow=classic;startArrow=classic;html=1;rounded=0;entryX=0.167;entryY=0.989;entryDx=0;entryDy=0;exitX=1.038;exitY=0.258;exitDx=0;exitDy=0;entryPerimeter=0;exitPerimeter=0;" edge="1" parent="WIyWlLk6GJQsqaUBKTNV-1" source="wTGpZdSpnWdDO8Zr_Y5N-34" target="wTGpZdSpnWdDO8Zr_Y5N-43">
          <mxGeometry width="50" height="50" relative="1" as="geometry">
            <mxPoint x="480" y="810" as="sourcePoint" />
            <mxPoint x="530" y="760" as="targetPoint" />
          </mxGeometry>
        </mxCell>
        <mxCell id="wTGpZdSpnWdDO8Zr_Y5N-67" value="" style="edgeStyle=orthogonalEdgeStyle;rounded=0;orthogonalLoop=1;jettySize=auto;html=1;" edge="1" parent="WIyWlLk6GJQsqaUBKTNV-1" source="wTGpZdSpnWdDO8Zr_Y5N-64" target="wTGpZdSpnWdDO8Zr_Y5N-66">
          <mxGeometry relative="1" as="geometry" />
        </mxCell>
        <mxCell id="wTGpZdSpnWdDO8Zr_Y5N-68" value="Yes" style="edgeLabel;html=1;align=center;verticalAlign=middle;resizable=0;points=[];" vertex="1" connectable="0" parent="wTGpZdSpnWdDO8Zr_Y5N-67">
          <mxGeometry x="-0.0444" y="1" relative="1" as="geometry">
            <mxPoint x="1" as="offset" />
          </mxGeometry>
        </mxCell>
        <mxCell id="wTGpZdSpnWdDO8Zr_Y5N-70" value="" style="edgeStyle=orthogonalEdgeStyle;rounded=0;orthogonalLoop=1;jettySize=auto;html=1;" edge="1" parent="WIyWlLk6GJQsqaUBKTNV-1" source="wTGpZdSpnWdDO8Zr_Y5N-64" target="wTGpZdSpnWdDO8Zr_Y5N-69">
          <mxGeometry relative="1" as="geometry" />
        </mxCell>
        <mxCell id="wTGpZdSpnWdDO8Zr_Y5N-73" value="No" style="edgeLabel;html=1;align=center;verticalAlign=middle;resizable=0;points=[];" vertex="1" connectable="0" parent="wTGpZdSpnWdDO8Zr_Y5N-70">
          <mxGeometry x="-0.1309" y="-1" relative="1" as="geometry">
            <mxPoint as="offset" />
          </mxGeometry>
        </mxCell>
        <mxCell id="wTGpZdSpnWdDO8Zr_Y5N-64" value="Success" style="rhombus;whiteSpace=wrap;html=1;rounded=1;glass=0;strokeWidth=1;shadow=0;fillColor=#d5e8d4;strokeColor=#82b366;" vertex="1" parent="WIyWlLk6GJQsqaUBKTNV-1">
          <mxGeometry x="1020" y="940" width="80" height="80" as="geometry" />
        </mxCell>
        <mxCell id="wTGpZdSpnWdDO8Zr_Y5N-84" value="" style="edgeStyle=orthogonalEdgeStyle;rounded=0;orthogonalLoop=1;jettySize=auto;html=1;" edge="1" parent="WIyWlLk6GJQsqaUBKTNV-1" source="wTGpZdSpnWdDO8Zr_Y5N-66" target="wTGpZdSpnWdDO8Zr_Y5N-81">
          <mxGeometry relative="1" as="geometry" />
        </mxCell>
        <mxCell id="wTGpZdSpnWdDO8Zr_Y5N-66" value="Log event to &lt;br&gt;log group" style="whiteSpace=wrap;html=1;rounded=1;glass=0;strokeWidth=1;shadow=0;fillColor=#dae8fc;strokeColor=#6c8ebf;" vertex="1" parent="WIyWlLk6GJQsqaUBKTNV-1">
          <mxGeometry x="1000" y="800" width="120" height="60" as="geometry" />
        </mxCell>
        <mxCell id="wTGpZdSpnWdDO8Zr_Y5N-72" value="" style="edgeStyle=orthogonalEdgeStyle;rounded=0;orthogonalLoop=1;jettySize=auto;html=1;entryX=1;entryY=0.5;entryDx=0;entryDy=0;exitX=0.5;exitY=0;exitDx=0;exitDy=0;" edge="1" parent="WIyWlLk6GJQsqaUBKTNV-1" source="wTGpZdSpnWdDO8Zr_Y5N-69" target="wTGpZdSpnWdDO8Zr_Y5N-66">
          <mxGeometry relative="1" as="geometry">
            <mxPoint x="1210" y="870" as="targetPoint" />
          </mxGeometry>
        </mxCell>
        <mxCell id="wTGpZdSpnWdDO8Zr_Y5N-69" value="Forward event description to devops_swiggy" style="whiteSpace=wrap;html=1;rounded=1;glass=0;strokeWidth=1;shadow=0;fillColor=#dae8fc;strokeColor=#6c8ebf;" vertex="1" parent="WIyWlLk6GJQsqaUBKTNV-1">
          <mxGeometry x="1150" y="950" width="120" height="60" as="geometry" />
        </mxCell>
        <mxCell id="wTGpZdSpnWdDO8Zr_Y5N-81" value="Lambda Shutdown" style="ellipse;whiteSpace=wrap;html=1;align=center;newEdgeStyle={&quot;edgeStyle&quot;:&quot;entityRelationEdgeStyle&quot;,&quot;startArrow&quot;:&quot;none&quot;,&quot;endArrow&quot;:&quot;none&quot;,&quot;segment&quot;:10,&quot;curved&quot;:1,&quot;sourcePerimeterSpacing&quot;:0,&quot;targetPerimeterSpacing&quot;:0};treeFolding=1;treeMoving=1;fillColor=#ffe6cc;strokeColor=#d79b00;" vertex="1" parent="WIyWlLk6GJQsqaUBKTNV-1">
          <mxGeometry x="990" y="660" width="140" height="60" as="geometry" />
        </mxCell>
        <mxCell id="wTGpZdSpnWdDO8Zr_Y5N-86" value="" style="endArrow=classic;startArrow=classic;html=1;rounded=0;entryX=0;entryY=1;entryDx=0;entryDy=0;exitX=1;exitY=0.5;exitDx=0;exitDy=0;" edge="1" parent="WIyWlLk6GJQsqaUBKTNV-1" source="wTGpZdSpnWdDO8Zr_Y5N-29" target="wTGpZdSpnWdDO8Zr_Y5N-26">
          <mxGeometry width="50" height="50" relative="1" as="geometry">
            <mxPoint x="330" y="1030" as="sourcePoint" />
            <mxPoint x="370" y="980" as="targetPoint" />
          </mxGeometry>
        </mxCell>
      </root>
    </mxGraphModel>
  </diagram>
</mxfile>
